<?xml version="1.0" encoding="utf-8"?>
<!-- Generator: Adobe Illustrator 24.2.0, SVG Export Plug-In . SVG Version: 6.00 Build 0)  -->
<svg version="1.1" id="Layer_1" xmlns="http://www.w3.org/2000/svg" xmlns:xlink="http://www.w3.org/1999/xlink" x="0px" y="0px"
	 viewBox="0 0 40 40" style="enable-background:new 0 0 40 40;" xml:space="preserve">
	<path fill="#fff" d="M39.8,16.7c-0.6-3.9-2.8-8.2-5.7-11c-2.8-2.6-6.1-4.4-9.7-5.2c-2.1-0.5-4.7-0.6-6.7-0.3C13.1,0.7,9.2,2.6,6,5.7
	c-2.7,2.7-4.6,5.9-5.5,9.6C0.1,17,0,18.2,0,20c0,3.3,0.7,6,2.1,9c1.5,3,3.8,5.6,6.7,7.6c3.8,2.6,8.7,3.8,13,3.3
	c5-0.6,9-2.4,12.4-5.9C38.8,29.4,40.7,23.4,39.8,16.7z M12.2,27.4c-0.5,1.1-1.5,3.9-1.4,4c0,0.1,0.4,0.4,0.7,0.7
	c0.4,0.3,0.7,0.6,0.7,0.7c0,0.1-0.1,0.2-0.3,0.4c-0.2,0.2-0.2,0.2-0.2,0.1c0.3-0.5,0.3-0.4-0.4-1.1c-0.5-0.5-0.7-0.7-0.7-0.8
	c0-0.4,1.5-4.2,1.7-4.2C12.3,27.1,12.3,27.2,12.2,27.4z M36.9,22.4c-0.5,2.9-1.5,5.3-3.3,7.7c-0.3,0.4-1,1.2-1.7,1.9l-1.1,1.1l0,0.6
	l0,0.6l-0.2-0.8c-0.3-1-0.5-1.6-0.8-2c-0.1-0.2-0.3-0.4-0.3-0.4c0,0,0.2-0.2,0.4-0.4c0.4-0.3,1-0.9,1.3-1.4c0.1-0.2,0.3-0.3,0.4-0.3
	c0.4-0.1,0.8-0.6,0.9-0.9c0.1-0.4,0.1-0.6-0.2-0.9l-0.2-0.3l0.2-0.8c0.2-0.8,0.2-0.8,0-1.9c-0.1-0.7-0.1-1.3-0.1-1.4
	c0-0.3-0.6-1.4-1-2.1c-0.8-1.1-1.1-1.4-2.2-1.9c-1.3-0.7-1.8-0.8-3.1-0.7c-1.2,0-2.1,0.3-3,0.7c-0.9,0.4-1.9,1.4-2.9,2.9
	c-0.3,0.5-0.4,0.6-0.4,1c0,0.4-0.1,0.7-0.3,1.3c-0.3,1-0.3,1.3,0.2,2.1c0.2,0.3,0.3,0.6,0.3,0.7c0,0-0.1,0.2-0.2,0.3
	c-0.4,0.4-0.4,1.1,0,1.6c0.2,0.3,0.8,0.5,1,0.4c0,0,0-0.2-0.1-0.4c-0.2-0.6-0.2-0.6,0.1,0c0.6,1.2,1.3,1.9,2.5,2.5
	c0.9,0.4,1.7,0.6,2.8,0.7c0.5,0,0.8,0.1,0.8,0.1c-0.5,0.2-2.6-0.1-3.5-0.5l-0.5-0.2l-0.1,0.2c-0.3,0.4-0.8,1.6-1,2.1
	c-0.1,0.3-0.2,0.9-0.2,1.4c-0.2,1.4-0.2,1.6-0.4,0.7c-0.3-1.4-2.1-8-2.3-8.4c0-0.1-0.5-0.2-1.1-0.4c-0.6-0.1-1.2-0.3-1.4-0.4
	c-0.2-0.1-0.4-0.1-0.4-0.1c0,0,0.1,0.2,0.3,0.5c0.2,0.2,0.4,0.6,0.6,0.8c0.4,0.6,1.2,2.4,1.4,3.1c0.3,0.8,0.2,0.8-0.6,1.5
	c-0.3,0.3-0.6,0.5-0.6,0.6c0,0.1,0.3,0.4,0.8,0.8c0.7,0.7,0.8,0.7,0.7,1l-0.1,0.2l0-0.2c0-0.2-0.2-0.4-0.8-1
	c-0.4-0.4-0.8-0.8-0.8-0.8c0-0.1,0.3-0.3,0.6-0.6c0.8-0.7,0.8-0.8,0.5-1.6c-0.6-1.5-1.8-3.8-2.3-4.2c-0.1-0.1-0.2-0.3-0.2-0.5
	c0-0.3,0.1-0.4,0.5-0.5c0.4-0.1,0.8-0.4,1-0.8c0.2-0.3,0.3-0.4,0.9-0.5c0.4-0.1,0.6-0.2,0.6-0.3c0,0-0.1-0.2-0.3-0.4
	c-0.3-0.4-0.4-0.7-0.2-0.8c0.1,0,0.3-0.1,0.6-0.1c0.3,0,0.5-0.1,0.5-0.1c0,0,0-0.3-0.2-0.6C19.1,21.4,19,21,19,21
	c0-0.1,0.2-0.2,0.4-0.2c0.5-0.2,1.5-0.6,1.5-0.7c0,0-0.3-0.2-0.6-0.4c-0.7-0.4-1.3-0.9-1.2-1c0,0,0.3-0.1,0.6-0.2
	c0.7-0.2,1.5-0.6,2.1-1c0.3-0.2,0.5-0.3,0.5-0.3c0,0-2.1-0.9-2.3-1c-0.1,0-0.1-0.1-0.1-0.2c0-0.1,0.5-0.6,1.1-1.1c0.6-0.5,1-1,1-1
	c0-0.1-0.5-0.1-1.9-0.3c-0.5-0.1-0.9-0.2-1-0.2c0,0,0.3-0.7,0.8-1.5c0.8-1.3,0.9-1.6,0.8-1.6c0,0-0.6,0.2-1.4,0.5
	c-1.1,0.4-1.4,0.5-1.5,0.4c-0.2-0.2-0.3-1.4-0.3-2.6V7.5L17,7.8c-0.7,0.4-1.7,1.1-2.1,1.7c-0.2,0.2-0.3,0.4-0.4,0.4
	c0,0-0.3-0.4-0.7-0.8c-0.6-0.8-1.5-1.8-1.6-1.8c0,0-0.1,0.3-0.1,0.7c-0.1,1.1-0.5,2.5-0.7,2.5c-0.1,0-0.4-0.2-0.8-0.3
	C9.9,9.9,8.9,9.6,8.6,9.6c-0.1,0,0,0.1,0.2,0.6c0.3,0.7,0.6,1.7,0.6,2.1l0,0.2l-0.7,0.1c-2,0.2-2.9,0.2-2.9,0.3c0,0,0.3,0.4,0.7,0.8
	c0.8,0.8,1.3,1.6,1.3,1.9c0,0.1-0.4,0.4-1.2,1c-0.6,0.5-1.2,0.9-1.2,0.9c0,0,0.1,0.1,0.2,0.1c0.8,0.2,1.2,0.3,1.5,0.5
	c0.4,0.2,0.8,0.6,1,0.9l0.2,0.2L7.3,20c-0.7,0.7-0.8,0.9-0.7,0.9c0.1,0.1,0.5,0.2,1,0.4s0.9,0.3,1,0.4c0,0,0,0.4-0.2,1
	c-0.1,0.5-0.2,0.9-0.2,1c0,0.1,1.3,0,1.5-0.1c0.2-0.1,0.3,0.1,0.3,0.7c0,0.4,0.1,0.7,0.1,0.7c0.1,0,0.9-0.3,0.9-0.4
	c0,0-0.1-0.2-0.2-0.4c-0.5-0.8-0.9-1.7-1.1-3.1c-0.2-0.9-0.3-1.7-0.2-1.7c0,0,0.1,0.2,0.1,0.5c0.2,1.7,0.9,3.9,1.6,4.6
	c0.2,0.2,0.6,0.4,1,0.6l0.6,0.3l0,0.3l0,0.3l-1.7,0.6l-1.7,0.6l-0.2,0.5c-0.1,0.3-0.4,1.4-0.8,2.6c-0.6,2.2-0.8,2.7-0.7,2.1
	c0-0.3,0-0.4-0.4-0.8C5,29,3.5,25.9,3,22.3c-0.2-1.3-0.2-4.1,0-5.4c0.7-3.6,2.1-6.6,4.5-9.1c3.9-4.1,9.3-6,15-5.2
	C27.9,3.5,32.8,7,35.3,12c0.8,1.5,1.3,3.3,1.6,5C37.1,18.2,37.1,21.3,36.9,22.4z"/>
</svg>
